<?xml version="1.0" encoding="UTF-8" standalone="no"?>
<!-- Created with Inkscape (http://www.inkscape.org/) -->

<svg
   xmlns:dc="http://purl.org/dc/elements/1.1/"
   xmlns:cc="http://creativecommons.org/ns#"
   xmlns:rdf="http://www.w3.org/1999/02/22-rdf-syntax-ns#"
   xmlns:svg="http://www.w3.org/2000/svg"
   xmlns="http://www.w3.org/2000/svg"
   xmlns:sodipodi="http://sodipodi.sourceforge.net/DTD/sodipodi-0.dtd"
   xmlns:inkscape="http://www.inkscape.org/namespaces/inkscape"
   width="400"
   height="320"
   id="svg4007"
   version="1.1"
   inkscape:version="0.48.5 r10040"
   sodipodi:docname="studentrnd.svg">
  <defs
     id="defs4009" />
  <sodipodi:namedview
     id="base"
     pagecolor="#ffffff"
     bordercolor="#666666"
     borderopacity="1.0"
     inkscape:pageopacity="0.0"
     inkscape:pageshadow="2"
     inkscape:zoom="0.98994949"
     inkscape:cx="297.92888"
     inkscape:cy="138.20198"
     inkscape:document-units="px"
     inkscape:current-layer="layer1"
     showgrid="false"
     fit-margin-top="100"
     fit-margin-left="0"
     fit-margin-right="0"
     fit-margin-bottom="100"
     inkscape:window-width="1536"
     inkscape:window-height="814"
     inkscape:window-x="-8"
     inkscape:window-y="-8"
     inkscape:window-maximized="1" />
  <metadata
     id="metadata4012">
    <rdf:RDF>
      <cc:Work
         rdf:about="">
        <dc:format>image/svg+xml</dc:format>
        <dc:type
           rdf:resource="http://purl.org/dc/dcmitype/StillImage" />
      </cc:Work>
    </rdf:RDF>
  </metadata>
  <g
     inkscape:label="Layer 1"
     inkscape:groupmode="layer"
     id="layer1"
     transform="translate(-160,-201.93362)">
    <g
       id="g4026"
       transform="translate(62.857143,2.8571386)">
      <path
         style="fill:#f9481c"
         d="m 97.14286,359.07648 0,-60 59.89301,0 c 53.6921,0 59.95586,0.16377 60.5,1.58179 0.33385,0.86998 0.60699,27.32998 0.60699,58.8 0,43.16972 -0.29463,57.51284 -1.2,58.41821 -0.90635,0.90635 -15.71111,1.2 -60.5,1.2 l -59.3,0 0,-60 z m 142.25,59.33772 c -0.98032,-0.39557 -1.25,-13.32339 -1.25,-59.92105 l 0,-59.41667 59.39301,0 c 53.23617,0 59.45593,0.16397 60,1.58179 0.33385,0.86998 0.60699,27.32998 0.60699,58.8 0,43.16972 -0.29463,57.51284 -1.2,58.41821 -0.9074,0.9074 -15.2328,1.18075 -58.75,1.12105 -31.6525,-0.0434 -58.1125,-0.30592 -58.8,-0.58333 z m 140,0 c -0.98032,-0.39557 -1.25,-13.32339 -1.25,-59.92105 l 0,-59.41667 59.5,0 59.5,0 0,60 0,60 -58.25,-0.079 c -32.0375,-0.0434 -58.8125,-0.30592 -59.5,-0.58333 z"
         id="path4032"
         inkscape:connector-curvature="0" />
      <path
         style="fill:#0343f8"
         d="m 239.39286,418.4142 c -0.98032,-0.39557 -1.25,-13.32339 -1.25,-59.92105 l 0,-59.41667 59.39301,0 c 53.23617,0 59.45593,0.16397 60,1.58179 0.33385,0.86998 0.60699,27.32998 0.60699,58.8 0,43.16972 -0.29463,57.51284 -1.2,58.41821 -0.9074,0.9074 -15.2328,1.18075 -58.75,1.12105 -31.6525,-0.0434 -58.1125,-0.30592 -58.8,-0.58333 z m 140,0 c -0.98032,-0.39557 -1.25,-13.32339 -1.25,-59.92105 l 0,-59.41667 59.5,0 59.5,0 0,60 0,60 -58.25,-0.079 c -32.0375,-0.0434 -58.8125,-0.30592 -59.5,-0.58333 z"
         id="path4030"
         inkscape:connector-curvature="0" />
      <path
         style="fill:#16df15"
         d="m 239.39286,418.4142 c -0.98032,-0.39557 -1.25,-13.32339 -1.25,-59.92105 l 0,-59.41667 59.39301,0 c 53.23617,0 59.45593,0.16397 60,1.58179 0.33385,0.86998 0.60699,27.32998 0.60699,58.8 0,43.16972 -0.29463,57.51284 -1.2,58.41821 -0.9074,0.9074 -15.2328,1.18075 -58.75,1.12105 -31.6525,-0.0434 -58.1125,-0.30592 -58.8,-0.58333 z"
         id="path4028"
         inkscape:connector-curvature="0" />
    </g>
  </g>
</svg>
