<?xml version="1.0" encoding="UTF-8" standalone="no"?>
<!-- Created with Inkscape (http://www.inkscape.org/) -->

<svg
   xmlns:dc="http://purl.org/dc/elements/1.1/"
   xmlns:cc="http://creativecommons.org/ns#"
   xmlns:rdf="http://www.w3.org/1999/02/22-rdf-syntax-ns#"
   xmlns:svg="http://www.w3.org/2000/svg"
   xmlns="http://www.w3.org/2000/svg"
   xmlns:sodipodi="http://sodipodi.sourceforge.net/DTD/sodipodi-0.dtd"
   xmlns:inkscape="http://www.inkscape.org/namespaces/inkscape"
   width="320.35477"
   height="319.69342"
   id="svg3251"
   version="1.1"
   inkscape:version="0.48.5 r10040"
   sodipodi:docname="New document 3">
  <defs
     id="defs3253" />
  <sodipodi:namedview
     id="base"
     pagecolor="#ffffff"
     bordercolor="#666666"
     borderopacity="1.0"
     inkscape:pageopacity="0.0"
     inkscape:pageshadow="2"
     inkscape:zoom="0.35"
     inkscape:cx="115.17738"
     inkscape:cy="82.703903"
     inkscape:document-units="px"
     inkscape:current-layer="layer1"
     showgrid="false"
     fit-margin-top="0"
     fit-margin-left="0"
     fit-margin-right="0"
     fit-margin-bottom="0"
     inkscape:window-width="463"
     inkscape:window-height="423"
     inkscape:window-x="104"
     inkscape:window-y="104"
     inkscape:window-maximized="0" />
  <metadata
     id="metadata3256">
    <rdf:RDF>
      <cc:Work
         rdf:about="">
        <dc:format>image/svg+xml</dc:format>
        <dc:type
           rdf:resource="http://purl.org/dc/dcmitype/StillImage" />
        <dc:title></dc:title>
      </cc:Work>
    </rdf:RDF>
  </metadata>
  <g
     inkscape:label="Layer 1"
     inkscape:groupmode="layer"
     id="layer1"
     transform="translate(-259.82262,-295.37265)">
    <g
       id="g3988"
       transform="matrix(1.2065768,0,0,1.2065768,-257.08391,-2682.611)">
      <path
         style="fill:#56b554"
         d="m 545.62807,2732.6455 c -38.93684,-5.3494 -71.29794,-24.8993 -93.75103,-56.6366 -4.94368,-6.9879 -5.84332,-9.1319 -4.41476,-10.5212 0.50714,-0.4933 3.62886,-2.4656 6.93715,-4.3831 16.82362,-9.7507 24.39648,-13.989 24.9956,-13.989 0.36417,0 2.46511,2.6316 4.66876,5.848 15.37838,22.446 38.78768,36.6239 66.45812,40.2507 33.7939,4.4294 68.94526,-11.8494 88.65369,-41.056 1.87151,-2.7735 3.71598,-5.0427 4.0988,-5.0427 0.38283,0 1.95262,0.7214 3.48843,1.6031 13.93338,7.9991 27.67369,16.0405 28.35645,16.5953 1.47609,1.1995 0.91375,2.867 -2.87659,8.5298 -13.97811,20.8834 -34.33795,38.1267 -56.57667,47.9162 -11.25213,4.9531 -19.44805,7.4467 -32.78357,9.9741 -6.47459,1.2271 -30.65118,1.8186 -37.25438,0.9114 z m -111.57391,-94.5053 c -0.93967,-1.1322 -1.78912,-3.9713 -3.01362,-10.0723 -2.25738,-11.2472 -2.64049,-15.2829 -2.63295,-27.7362 0.0104,-17.1532 1.62482,-27.4423 6.70562,-42.7365 12.86761,-38.7339 44.7054,-70.5693 83.56965,-83.5634 8.65594,-2.8941 25.44997,-6.4921 27.1885,-5.8249 0.9768,0.3748 1.0934,2.4443 1.0934,19.4064 0,14.3825 -0.2026,19.1513 -0.83543,19.6647 -0.45948,0.3727 -2.63995,1.0462 -4.84548,1.4967 -11.49421,2.3474 -26.02017,8.9805 -35.89267,16.39 -6.90737,5.184 -16.3726,15.0008 -21.15294,21.9385 -12.62358,18.3207 -18.67342,42.4612 -15.93571,63.5878 0.55808,4.3067 0.71548,7.8144 0.38001,8.4686 -0.31497,0.6143 -2.15375,1.9847 -4.08618,3.0454 -1.93243,1.0606 -8.47595,4.8023 -14.54115,8.3148 -15.18558,8.7943 -15.07175,8.7401 -16.00105,7.6204 z m 241.56638,-5.8143 c -6.249,-3.6564 -13.51608,-7.8525 -16.14907,-9.3245 -6.3882,-3.5714 -6.42029,-3.6211 -5.63952,-8.7319 2.36098,-15.4545 0.90374,-30.7877 -4.31069,-45.357 -4.86358,-13.589 -11.52187,-23.9555 -22.33358,-34.7718 -13.03308,-13.0386 -27.96741,-21.4288 -44.64143,-25.0798 -2.84457,-0.6229 -5.54789,-1.4313 -6.00737,-1.7966 -1.29113,-1.0263 -1.20078,-38.4976 0.094,-38.9945 1.48769,-0.5709 13.41808,1.678 22.12834,4.1713 45.50558,13.0255 81.23471,50.7636 92.2253,97.4108 2.70889,11.4973 3.19118,17.3896 2.81696,34.4162 -0.30163,13.7231 -0.57152,16.7814 -2.07089,23.4656 -1.94804,8.6844 -2.90433,11.389 -3.99592,11.3011 -0.41489,-0.033 -5.86716,-3.0524 -12.11615,-6.7089 z"
         id="path3994"
         inkscape:connector-curvature="0" />
      <path
         style="fill:#33839f"
         d="m 434.05416,2638.1402 c -0.93967,-1.1322 -1.78912,-3.9713 -3.01362,-10.0723 -2.25738,-11.2472 -2.64049,-15.2829 -2.63295,-27.7362 0.0104,-17.1532 1.62482,-27.4423 6.70562,-42.7365 12.86761,-38.7339 44.7054,-70.5693 83.56965,-83.5634 8.65594,-2.8941 25.44997,-6.4921 27.1885,-5.8249 0.9768,0.3748 1.0934,2.4443 1.0934,19.4064 0,14.3825 -0.2026,19.1513 -0.83543,19.6647 -0.45948,0.3727 -2.63995,1.0462 -4.84548,1.4967 -11.49421,2.3474 -26.02017,8.9805 -35.89267,16.39 -6.90737,5.184 -16.3726,15.0008 -21.15294,21.9385 -12.62358,18.3207 -18.67342,42.4612 -15.93571,63.5878 0.55808,4.3067 0.71548,7.8144 0.38001,8.4686 -0.31497,0.6143 -2.15375,1.9847 -4.08618,3.0454 -1.93243,1.0606 -8.47595,4.8023 -14.54115,8.3148 -15.18558,8.7943 -15.07175,8.7401 -16.00105,7.6204 z m 241.56638,-5.8143 c -6.249,-3.6564 -13.51608,-7.8525 -16.14907,-9.3245 -6.3882,-3.5714 -6.42029,-3.6211 -5.63952,-8.7319 2.36098,-15.4545 0.90374,-30.7877 -4.31069,-45.357 -4.86358,-13.589 -11.52187,-23.9555 -22.33358,-34.7718 -13.03308,-13.0386 -27.96741,-21.4288 -44.64143,-25.0798 -2.84457,-0.6229 -5.54789,-1.4313 -6.00737,-1.7966 -1.29113,-1.0263 -1.20078,-38.4976 0.094,-38.9945 1.48769,-0.5709 13.41808,1.678 22.12834,4.1713 45.50558,13.0255 81.23471,50.7636 92.2253,97.4108 2.70889,11.4973 3.19118,17.3896 2.81696,34.4162 -0.30163,13.7231 -0.57152,16.7814 -2.07089,23.4656 -1.94804,8.6844 -2.90433,11.389 -3.99592,11.3011 -0.41489,-0.033 -5.86716,-3.0524 -12.11615,-6.7089 z"
         id="path3992"
         inkscape:connector-curvature="0" />
      <path
         style="fill:#d03f3b"
         d="m 434.05416,2638.1402 c -0.93967,-1.1322 -1.78912,-3.9713 -3.01362,-10.0723 -2.25738,-11.2472 -2.64049,-15.2829 -2.63295,-27.7362 0.0104,-17.1532 1.62482,-27.4423 6.70562,-42.7365 12.86761,-38.7339 44.7054,-70.5693 83.56965,-83.5634 8.65594,-2.8941 25.44997,-6.4921 27.1885,-5.8249 0.9768,0.3748 1.0934,2.4443 1.0934,19.4064 0,14.3825 -0.2026,19.1513 -0.83543,19.6647 -0.45948,0.3727 -2.63995,1.0462 -4.84548,1.4967 -11.49421,2.3474 -26.02017,8.9805 -35.89267,16.39 -6.90737,5.184 -16.3726,15.0008 -21.15294,21.9385 -12.62358,18.3207 -18.67342,42.4612 -15.93571,63.5878 0.55808,4.3067 0.71548,7.8144 0.38001,8.4686 -0.31497,0.6143 -2.15375,1.9847 -4.08618,3.0454 -1.93243,1.0606 -8.47595,4.8023 -14.54115,8.3148 -15.18558,8.7943 -15.07175,8.7401 -16.00105,7.6204 z"
         id="path3990"
         inkscape:connector-curvature="0" />
    </g>
  </g>
</svg>
